# xmcd
#
# Track frame offsets: 
#        150
#        17362
#        37153
#        54215
#        70248
#        94638
#        112045
#        127680
#        143940
#        163216
#        179238
#        194260
#        211085
#        230550
#        248593
#        263984
#        278658
#        293590
#        316498
#        332033
#
# Disc length: 4659 seconds
#
# Revision: 0
# Processed by: cddbd v1.5.2PL0 Copyright (c) Steve Scherf et al.
# Submitted via: ExactAudioCopy v1.2
#
DISCID=23123114
DTITLE=Charlie Landsborough - Movin' On and Smile, CD2
DYEAR=2010
DGENRE=Country
TTITLE0=Sentimentally Yours
TTITLE1=Gone But I Can't Let You Go
TTITLE2=Smile
TTITLE3=Little Bit Of Heaven
TTITLE4=The Bluebell Man
TTITLE5=Peace Of Mind
TTITLE6=What Makes Me Happy
TTITLE7=After All These Years
TTITLE8=Child Of Candlelight
TTITLE9=Raining In My Heart
TTITLE10=Takin' My Time
TTITLE11=Marie
TTITLE12=Counterfeit Man
TTITLE13=Like You Once Loved Me
TTITLE14=Getting Out
TTITLE15=Silver Of My Tears
TTITLE16=What Happened To Love
TTITLE17=When You Were Sweet Sixteen
TTITLE18=Little Bit Of Heaven [Live]
TTITLE19=Counterfeit Man [Live]
EXTD=
EXTT0=
EXTT1=
EXTT2=
EXTT3=
EXTT4=
EXTT5=
EXTT6=
EXTT7=
EXTT8=
EXTT9=
EXTT10=
EXTT11=
EXTT12=
EXTT13=
EXTT14=
EXTT15=
EXTT16=
EXTT17=
EXTT18=
EXTT19=
PLAYORDER=
